<?xml version="1.0" encoding="UTF-8"?>
<!DOCTYPE svg PUBLIC "-//W3C//DTD SVG 1.1//EN" "http://www.w3.org/Graphics/SVG/1.1/DTD/svg11.dtd">
<svg xmlns="http://www.w3.org/2000/svg" version="1.1" width="1024px" height="1024px" style="shape-rendering:geometricPrecision; text-rendering:geometricPrecision; image-rendering:optimizeQuality; fill-rule:evenodd; clip-rule:evenodd" xmlns:xlink="http://www.w3.org/1999/xlink">
<g><path style="opacity:1" fill="#133b42" d="M -0.5,-0.5 C 340.5,-0.5 681.5,-0.5 1022.5,-0.5C 1022.5,0.166667 1022.5,0.833333 1022.5,1.5C 1021.5,341.333 1021.17,681.333 1021.5,1021.5C 945.332,1021.17 869.332,1021.5 793.5,1022.5C 528.833,1022.5 264.167,1022.5 -0.5,1022.5C -0.5,681.5 -0.5,340.5 -0.5,-0.5 Z"/></g>
<g><path style="opacity:1" fill="#479e75" d="M 653.5,205.5 C 654.058,206.79 655.058,207.623 656.5,208C 682.498,208.5 708.498,208.667 734.5,208.5C 768.667,215.498 790.5,235.831 800,269.5C 800.828,273.466 801.328,277.466 801.5,281.5C 800.337,301.996 800.171,322.663 801,343.5C 807.635,355.274 814.801,366.607 822.5,377.5C 844.476,411.433 865.976,445.766 887,480.5C 895.85,497.67 896.85,515.337 890,533.5C 875.333,558.167 860.667,582.833 846,607.5C 840.114,617.574 831.614,620.741 820.5,617C 813.184,612.534 810.017,606.034 811,597.5C 824.151,574.534 837.817,551.867 852,529.5C 854.274,525.286 856.274,520.953 858,516.5C 858.667,512.167 858.667,507.833 858,503.5C 833.516,461.867 808.516,420.533 783,379.5C 777.908,370.592 773.075,361.592 768.5,352.5C 769.663,331.004 769.829,309.337 769,287.5C 768.919,282.632 768.086,278.632 766.5,275.5C 761.35,260.184 751.016,250.017 735.5,245C 705.806,244.025 676.14,243.025 646.5,242C 601.174,216.672 556.174,190.839 511.5,164.5C 467.629,190.2 423.629,215.7 379.5,241C 377.212,241.822 374.878,242.489 372.5,243C 346.167,243.333 319.833,243.667 293.5,244C 273.88,246.62 261.38,257.453 256,276.5C 255.973,302.895 255.307,329.229 254,355.5C 225.169,403.834 195.835,451.834 166,499.5C 162.214,508.515 162.88,517.182 168,525.5C 197.946,573.064 227.112,621.064 255.5,669.5C 256.457,691.807 256.791,714.14 256.5,736.5C 258.293,755.144 267.627,768.144 284.5,775.5C 284.062,775.435 283.728,775.601 283.5,776C 286.648,777.605 289.981,778.605 293.5,779C 320.003,779.83 346.337,779.663 372.5,778.5C 382.381,782.774 392.048,787.607 401.5,793C 437.521,815.027 474.021,836.193 511,856.5C 517.342,853.745 523.509,850.579 529.5,847C 561.998,825.914 594.998,805.581 628.5,786C 645.392,783.224 652.892,790.391 651,807.5C 648.55,812.284 645.05,816.117 640.5,819C 601.833,842.667 563.167,866.333 524.5,890C 514.316,893.654 504.316,893.32 494.5,889C 451.801,863.317 408.801,838.151 365.5,813.5C 337.891,813.346 310.225,813.013 282.5,812.5C 249.501,802.832 229.168,781.165 221.5,747.5C 220.576,724.517 220.242,701.517 220.5,678.5C 192.775,631.389 164.275,584.722 135,538.5C 124.718,518.966 125.052,499.633 136,480.5C 164.584,435.001 192.917,389.334 221,343.5C 221.333,319.833 221.667,296.167 222,272.5C 229.766,241.071 248.933,220.238 279.5,210C 308.847,209.017 338.18,208.017 367.5,207C 411.909,180.934 456.575,155.267 501.5,130C 512.204,127.173 522.204,128.839 531.5,135C 571.813,159.154 612.48,182.654 653.5,205.5 Z"/></g>
<g><path style="opacity:1" fill="#061d34" d="M 653.5,205.5 C 655.179,205.892 656.846,206.392 658.5,207C 684.003,207.168 709.337,207.668 734.5,208.5C 708.498,208.667 682.498,208.5 656.5,208C 655.058,207.623 654.058,206.79 653.5,205.5 Z"/></g>
<g><path style="opacity:1" fill="#43a573" d="M 681.5,311.5 C 671.704,310.882 662.037,310.215 652.5,309.5C 661.495,308.792 670.495,308.625 679.5,309C 680.381,309.708 681.047,310.542 681.5,311.5 Z"/></g>
<g><path style="opacity:1" fill="#469d74" d="M 371.5,308.5 C 405.584,312.806 437.584,323.64 467.5,341C 482.794,351.228 497.627,362.061 512,373.5C 541.139,347.005 574.639,327.838 612.5,316C 625.678,312.856 639.011,310.689 652.5,309.5C 662.037,310.215 671.704,310.882 681.5,311.5C 682.117,311.611 682.617,311.944 683,312.5C 683.5,320.827 683.666,329.16 683.5,337.5C 695.869,337.216 708.202,337.716 720.5,339C 721.984,339.662 723.317,340.496 724.5,341.5C 724.5,342.167 724.5,342.833 724.5,343.5C 723.831,429.039 723.164,514.706 722.5,600.5C 722.624,601.107 722.957,601.44 723.5,601.5C 723.5,601.833 723.5,602.167 723.5,602.5C 722.527,602.987 721.527,603.487 720.5,604C 693.137,604.192 665.804,604.692 638.5,605.5C 596.121,608.57 557.454,622.07 522.5,646C 539.829,663 553.663,682.5 564,704.5C 565.909,709.559 567.409,714.726 568.5,720C 568.741,724.926 566.407,727.426 561.5,727.5C 559.088,727.594 557.255,726.594 556,724.5C 546.263,698.014 531.263,675.014 511,655.5C 490.392,675.343 474.725,698.676 464,725.5C 455.634,729.476 451.967,726.81 453,717.5C 463.248,689.926 479.081,666.092 500.5,646C 468.323,623.66 432.657,610.493 393.5,606.5C 387.536,605.693 381.536,605.36 375.5,605.5C 375.5,605.167 375.5,604.833 375.5,604.5C 353.858,603.645 329.525,603.145 302.5,603C 301.584,602.626 300.75,602.126 300,601.5C 299.214,517.001 298.381,432.668 297.5,348.5C 297.5,346.5 297.5,344.5 297.5,342.5C 298.167,342.167 298.833,341.833 299.5,341.5C 300.756,341.539 301.756,341.039 302.5,340C 314.5,339.667 326.5,339.333 338.5,339C 327.505,338.5 316.505,338.333 305.5,338.5C 316.321,337.505 327.321,337.172 338.5,337.5C 338.334,329.16 338.5,320.827 339,312.5C 339.833,311.667 340.667,310.833 341.5,310C 351.395,308.551 361.395,308.051 371.5,308.5 Z"/></g>
<g><path style="opacity:1" fill="#47aa77" d="M 768.5,352.5 C 767.806,326.882 767.139,301.216 766.5,275.5C 768.086,278.632 768.919,282.632 769,287.5C 769.829,309.337 769.663,331.004 768.5,352.5 Z"/></g>
<g><path style="opacity:1" fill="#133b42" d="M 667.5,324.5 C 666.092,398.329 666.425,471.996 668.5,545.5C 660.693,546.717 652.693,547.384 644.5,547.5C 613.473,549.673 584.473,558.507 557.5,574C 544.742,581.604 532.409,589.77 520.5,598.5C 519.842,571.069 519.175,543.736 518.5,516.5C 538.679,508.489 556.513,496.822 572,481.5C 587.876,460.327 593.543,436.66 589,410.5C 587.701,409.02 586.034,408.354 584,408.5C 549.237,417.253 524.903,438.253 511,471.5C 498.254,439.088 475.087,418.254 441.5,409C 437.525,407.621 434.691,408.787 433,412.5C 428.55,452.431 443.384,482.598 477.5,503C 485.954,507.311 494.454,511.477 503,515.5C 503.667,543.5 503.667,571.5 503,599.5C 459.941,563.531 410.108,545.864 353.5,546.5C 353.5,474.833 353.5,403.167 353.5,331.5C 354.333,400.665 354.833,469.999 355,539.5C 355.5,468.167 355.667,396.834 355.5,325.5C 362.022,325.823 368.355,325.49 374.5,324.5C 410.75,329.191 443.75,342.024 473.5,363C 485.081,371.244 496.081,380.244 506.5,390C 509.833,392 513.167,392 516.5,390C 556.879,349.566 605.712,327.4 663,323.5C 664.707,323.508 666.207,323.842 667.5,324.5 Z"/></g>
<g><path style="opacity:1" fill="#041831" d="M 805.5,347.5 C 804.21,346.942 803.377,345.942 803,344.5C 802.5,336.173 802.334,327.84 802.5,319.5C 802.335,316.482 802.502,313.482 803,310.5C 803.333,321.5 803.667,332.5 804,343.5C 804.791,344.745 805.291,346.078 805.5,347.5 Z"/></g>
<g><path style="opacity:1" fill="#071f36" d="M 371.5,308.5 C 361.395,308.051 351.395,308.551 341.5,310C 340.667,310.833 339.833,311.667 339,312.5C 338.5,320.827 338.334,329.16 338.5,337.5C 327.321,337.172 316.321,337.505 305.5,338.5C 304.167,338.5 302.833,338.5 301.5,338.5C 300.991,337.659 301.657,337.159 303.5,337C 314.828,336.5 326.162,336.333 337.5,336.5C 337.334,328.16 337.5,319.827 338,311.5C 338.833,310.667 339.667,309.833 340.5,309C 346.395,307.876 352.395,307.376 358.5,307.5C 364.898,307.375 369.231,307.708 371.5,308.5 Z"/></g>
<g><path style="opacity:1" fill="#54bd80" d="M 301.5,338.5 C 302.833,338.5 304.167,338.5 305.5,338.5C 316.505,338.333 327.505,338.5 338.5,339C 326.5,339.333 314.5,339.667 302.5,340C 301.756,341.039 300.756,341.539 299.5,341.5C 300.167,340.5 300.833,339.5 301.5,338.5 Z"/></g>
<g><path style="opacity:1" fill="#143b42" d="M 313.5,353.5 C 321.833,352.167 330.167,352.167 338.5,353.5C 337.448,353.351 336.448,353.517 335.5,354C 337.163,421.121 338.163,488.288 338.5,555.5C 339.277,558.112 340.944,559.945 343.5,561C 407.638,558.934 462.638,579.934 508.5,624C 510.971,624.706 513.305,624.373 515.5,623C 562.373,579.764 617.706,558.264 681.5,558.5C 681.833,558.5 682.167,558.5 682.5,558.5C 682.435,558.938 682.601,559.272 683,559.5C 683.915,558.672 684.581,557.672 685,556.5C 684.826,488.826 684.992,421.159 685.5,353.5C 686.791,353.737 687.791,353.404 688.5,352.5C 695.354,352.176 702.021,352.509 708.5,353.5C 685.833,353.833 685.833,354.167 708.5,354.5C 708.5,432.5 708.5,510.5 708.5,588.5C 683.133,588.165 659.8,588.498 638.5,589.5C 592.029,593.824 549.529,609.157 511,635.5C 474.463,609.711 433.963,594.711 389.5,590.5C 391.527,590.662 393.527,590.495 395.5,590C 368.189,588.615 340.856,588.115 313.5,588.5C 313.167,588.5 312.833,588.5 312.5,588.5C 312.5,587.833 312.5,587.167 312.5,586.5C 313.168,509.098 313.835,431.598 314.5,354C 314.272,353.601 313.938,353.435 313.5,353.5 Z"/></g>
<g><path style="opacity:1" fill="#4dad7a" d="M 801.5,281.5 C 801.171,294.344 801.505,307.011 802.5,319.5C 802.334,327.84 802.5,336.173 803,344.5C 803.377,345.942 804.21,346.942 805.5,347.5C 811.167,357.5 816.833,367.5 822.5,377.5C 814.801,366.607 807.635,355.274 801,343.5C 800.171,322.663 800.337,301.996 801.5,281.5 Z"/></g>
<g><path style="opacity:1" fill="#5bc787" d="M 724.5,343.5 C 724.83,429.571 724.497,515.571 723.5,601.5C 722.957,601.44 722.624,601.107 722.5,600.5C 723.164,514.706 723.831,429.039 724.5,343.5 Z"/></g>
<g><path style="opacity:1" fill="#0c2e3c" d="M 667.5,324.5 C 667.833,324.5 668.167,324.5 668.5,324.5C 668.5,398.167 668.5,471.833 668.5,545.5C 666.425,471.996 666.092,398.329 667.5,324.5 Z"/></g>
<g><path style="opacity:1" fill="#133941" d="M 573.5,427.5 C 575.663,451.024 566.997,469.858 547.5,484C 539.286,489.608 530.619,494.441 521.5,498.5C 525.026,464.651 542.359,440.985 573.5,427.5 Z"/></g>
<g><path style="opacity:1" fill="#133942" d="M 447.5,428.5 C 461.832,432.642 473.665,440.642 483,452.5C 493.982,466.099 500.149,481.432 501.5,498.5C 482.368,491.37 467.201,479.37 456,462.5C 450.191,451.906 447.357,440.573 447.5,428.5 Z"/></g>
<g><path style="opacity:1" fill="#071a35" d="M 338.5,353.5 C 338.5,420.833 338.5,488.167 338.5,555.5C 338.163,488.288 337.163,421.121 335.5,354C 336.448,353.517 337.448,353.351 338.5,353.5 Z"/></g>
<g><path style="opacity:1" fill="#092338" d="M 374.5,324.5 C 368.355,325.49 362.022,325.823 355.5,325.5C 355.667,396.834 355.5,468.167 355,539.5C 354.833,469.999 354.333,400.665 353.5,331.5C 353.232,328.881 353.565,326.381 354.5,324C 361.18,323.526 367.846,323.693 374.5,324.5 Z"/></g>
<g><path style="opacity:1" fill="#0c273a" d="M 297.5,342.5 C 297.5,344.5 297.5,346.5 297.5,348.5C 297.5,352.167 297.5,355.833 297.5,359.5C 296.667,396.664 296.167,433.998 296,471.5C 295.333,429.5 295.333,387.5 296,345.5C 296.232,344.263 296.732,343.263 297.5,342.5 Z"/></g>
<g><path style="opacity:1" fill="#4ead7a" d="M 683.5,443.5 C 683.827,481.906 683.494,520.239 682.5,558.5C 682.167,558.5 681.833,558.5 681.5,558.5C 681.954,494.873 682.12,431.207 682,367.5C 682.168,393.003 682.668,418.337 683.5,443.5 Z"/></g>
<g><path style="opacity:1" fill="#0d2f3e" d="M 688.5,352.5 C 687.791,353.404 686.791,353.737 685.5,353.5C 684.992,421.159 684.826,488.826 685,556.5C 684.581,557.672 683.915,558.672 683,559.5C 682.601,559.272 682.435,558.938 682.5,558.5C 683.494,520.239 683.827,481.906 683.5,443.5C 683.333,413.498 683.5,383.498 684,353.5C 685.356,352.62 686.856,352.286 688.5,352.5 Z"/></g>
<g><path style="opacity:1" fill="#52b37d" d="M 709.5,589.5 C 709.5,588.833 709.5,588.167 709.5,587.5C 710.333,509.668 710.833,431.668 711,353.5C 711.667,431.833 711.667,510.167 711,588.5C 710.617,589.056 710.117,589.389 709.5,589.5 Z"/></g>
<g><path style="opacity:1" fill="#11313f" d="M 724.5,341.5 C 725.222,341.918 725.722,342.584 726,343.5C 726.667,428.833 726.667,514.167 726,599.5C 725.623,600.942 724.79,601.942 723.5,602.5C 723.5,602.167 723.5,601.833 723.5,601.5C 724.497,515.571 724.83,429.571 724.5,343.5C 724.5,342.833 724.5,342.167 724.5,341.5 Z"/></g>
<g><path style="opacity:1" fill="#47a775" d="M 644.5,547.5 C 652.693,547.384 660.693,546.717 668.5,545.5C 668.5,471.833 668.5,398.167 668.5,324.5C 669.792,397.763 670.292,471.763 670,546.5C 661.45,548.505 652.95,548.839 644.5,547.5 Z"/></g>
<g><path style="opacity:1" fill="#4fb07c" d="M 312.5,521.5 C 312.5,543.167 312.5,564.833 312.5,586.5C 312.5,587.167 312.5,587.833 312.5,588.5C 311.659,589.009 311.159,588.343 311,586.5C 310.333,509.167 310.333,431.833 311,354.5C 311.167,410.335 311.667,466.001 312.5,521.5 Z"/></g>
<g><path style="opacity:1" fill="#061d34" d="M 313.5,353.5 C 313.938,353.435 314.272,353.601 314.5,354C 313.835,431.598 313.168,509.098 312.5,586.5C 312.5,564.833 312.5,543.167 312.5,521.5C 312.168,465.331 312.501,409.331 313.5,353.5 Z"/></g>
<g><path style="opacity:1" fill="#4fb17c" d="M 297.5,348.5 C 298.381,432.668 299.214,517.001 300,601.5C 300.75,602.126 301.584,602.626 302.5,603C 329.525,603.145 353.858,603.645 375.5,604.5C 350.498,604.667 325.498,604.5 300.5,604C 299.299,603.097 298.465,601.931 298,600.5C 297.5,520.167 297.333,439.834 297.5,359.5C 297.5,355.833 297.5,352.167 297.5,348.5 Z"/></g>
<g><path style="opacity:1" fill="#0c273a" d="M 313.5,588.5 C 340.856,588.115 368.189,588.615 395.5,590C 393.527,590.495 391.527,590.662 389.5,590.5C 364.007,589.934 338.673,589.267 313.5,588.5 Z"/></g>
<g><path style="opacity:1" fill="#082136" d="M 708.5,353.5 C 709.499,431.332 709.833,509.332 709.5,587.5C 709.5,588.167 709.5,588.833 709.5,589.5C 685.833,589.5 662.167,589.5 638.5,589.5C 659.8,588.498 683.133,588.165 708.5,588.5C 708.5,510.5 708.5,432.5 708.5,354.5C 685.833,354.167 685.833,353.833 708.5,353.5 Z"/></g>
<g><path style="opacity:1" fill="#04102e" d="M 518.5,516.5 C 519.175,543.736 519.842,571.069 520.5,598.5C 519.883,598.611 519.383,598.944 519,599.5C 518.5,571.835 518.333,544.169 518.5,516.5 Z"/></g>
<g><path style="opacity:1" fill="#0a2239" d="M 375.5,605.5 C 381.536,605.36 387.536,605.693 393.5,606.5C 392.207,607.158 390.707,607.492 389,607.5C 360.512,606.704 332.012,606.204 303.5,606C 327.498,605.5 351.498,605.333 375.5,605.5 Z"/></g>
<g><path style="opacity:1" fill="#143441" d="M 723.5,602.5 C 722.64,604.614 720.973,605.78 718.5,606C 691.664,606.83 664.997,606.664 638.5,605.5C 665.804,604.692 693.137,604.192 720.5,604C 721.527,603.487 722.527,602.987 723.5,602.5 Z"/></g>
<g><path style="opacity:1" fill="#479e75" d="M 656.5,736.5 C 655.201,726.503 655.201,716.503 656.5,706.5C 668.069,654.285 700.736,626.951 754.5,624.5C 797.534,626.256 827.368,646.923 844,686.5C 846.713,695.656 848.546,704.99 849.5,714.5C 853.644,711.524 857.644,708.357 861.5,705C 871.951,702.445 876.451,706.611 875,717.5C 866.788,726.012 858.288,734.179 849.5,742C 845.702,745.186 841.368,746.186 836.5,745C 826.159,736.265 815.992,727.432 806,718.5C 803.494,712.333 805.328,707.833 811.5,705C 817.191,704.424 822.025,706.257 826,710.5C 827.451,699.638 825.118,689.638 819,680.5C 800.871,653.187 775.371,641.021 742.5,644C 701.871,652.63 679.538,677.63 675.5,719C 677.423,759.838 697.756,786.838 736.5,800C 768.847,807.541 797.181,800.208 821.5,778C 822.167,777.333 822.833,777.333 823.5,778C 800.317,809.514 769.317,821.847 730.5,815C 699.004,807.509 676.504,789.009 663,759.5C 660.339,751.84 658.172,744.173 656.5,736.5 Z"/></g>
<g><path style="opacity:1" fill="#479f75" d="M 750.5,669.5 C 755.74,668.538 759.907,670.205 763,674.5C 763.333,688.833 763.667,703.167 764,717.5C 774.667,728.833 785.333,740.167 796,751.5C 798.776,757.134 797.609,761.634 792.5,765C 789.036,765.817 785.702,765.483 782.5,764C 769.973,751.473 757.473,738.973 745,726.5C 744.333,709.833 744.333,693.167 745,676.5C 746.666,674.004 748.5,671.671 750.5,669.5 Z"/></g>
<g><path style="opacity:1" fill="#041831" d="M 255.5,669.5 C 256.222,669.918 256.722,670.584 257,671.5C 257.829,693.337 257.663,715.004 256.5,736.5C 256.791,714.14 256.457,691.807 255.5,669.5 Z"/></g>
<g><path style="opacity:1" fill="#0a2037" d="M 656.5,706.5 C 655.201,716.503 655.201,726.503 656.5,736.5C 654.883,732.821 654.216,727.655 654.5,721C 654.509,715.12 655.009,709.287 656,703.5C 656.483,704.448 656.649,705.448 656.5,706.5 Z"/></g>
<g><path style="opacity:1" fill="#061d34" d="M 220.5,678.5 C 220.242,701.517 220.576,724.517 221.5,747.5C 220.603,746.319 220.103,744.319 220,741.5C 219.171,720.329 219.337,699.329 220.5,678.5 Z"/></g>
<g><path style="opacity:1" fill="#53bc80" d="M 284.5,775.5 C 287.738,776.633 291.071,777.467 294.5,778C 320.498,778.5 346.498,778.667 372.5,778.5C 346.337,779.663 320.003,779.83 293.5,779C 289.981,778.605 286.648,777.605 283.5,776C 283.728,775.601 284.062,775.435 284.5,775.5 Z"/></g>
<g><path style="opacity:1" fill="#102c3d" d="M 282.5,812.5 C 310.225,813.013 337.891,813.346 365.5,813.5C 339.67,814.663 313.67,814.83 287.5,814C 285.618,813.802 283.952,813.302 282.5,812.5 Z"/></g>
<g><path style="opacity:1" fill="#17434a" d="M 1022.5,1.5 C 1022.5,341.833 1022.5,682.167 1022.5,1022.5C 946.167,1022.5 869.833,1022.5 793.5,1022.5C 869.332,1021.5 945.332,1021.17 1021.5,1021.5C 1021.17,681.333 1021.5,341.333 1022.5,1.5 Z"/></g>
<g><path style="opacity:1" fill="#102f37" d="M 1022.5,-0.5 C 1022.83,-0.5 1023.17,-0.5 1023.5,-0.5C 1023.5,340.833 1023.5,682.167 1023.5,1023.5C 682.167,1023.5 340.833,1023.5 -0.5,1023.5C -0.5,1023.17 -0.5,1022.83 -0.5,1022.5C 264.167,1022.5 528.833,1022.5 793.5,1022.5C 869.833,1022.5 946.167,1022.5 1022.5,1022.5C 1022.5,682.167 1022.5,341.833 1022.5,1.5C 1022.5,0.833333 1022.5,0.166667 1022.5,-0.5 Z"/></g>
</svg>
